<svg width="512" height="512" version="1.1" xmlns="http://www.w3.org/2000/svg" desc="Created with imagetracer.js version 1.2.6" ><path fill="rgb(0,0,0)" stroke="rgb(0,0,0)" stroke-width="1" opacity="0" d="M 0 0 L 444 0.5 Q 411.3 10.8 383.5 26 Q 361.9 37.4 347 55.5 L 335 77.5 L 321 127.5 L 305 161.5 Q 280.3 200.3 246.5 230 Q 217.8 255.8 185.5 278 L 164 299.5 Q 147 319 140 348.5 L 138 358.5 L 138 365.5 L 137 366.5 L 137 416.5 L 138 417.5 L 139 452.5 L 137.5 452 L 126 441.5 Q 113.5 428.5 107 409.5 L 104 393.5 L 104 381.5 L 105 380.5 L 106 368.5 L 110 355.5 L 123 327.5 L 166 262.5 L 187 225.5 L 197 198.5 L 199 188.5 L 199 181.5 L 200 180.5 L 200 168.5 L 197 151.5 L 188 130.5 Q 179.2 115.8 166.5 105 Q 153.4 93.6 135.5 87 L 115.5 82 L 98.5 81 L 97.5 82 L 82.5 83 L 66.5 88 Q 47.3 96.3 34 110.5 L 27 122.5 L 26 130.5 L 29 138.5 L 31.5 141 Q 36 145.5 46.5 144 L 56.5 140 Q 65.8 131.3 78.5 126 L 91.5 123 L 105.5 123 Q 132.2 127.8 145 146.5 L 156 168.5 L 157 173.5 L 157 190.5 L 151 213.5 L 135 247.5 L 89 319.5 L 74 346.5 L 68 361.5 L 65 374.5 L 64 399.5 L 65 400.5 L 66 414.5 L 74 441.5 Q 85.6 469.9 106.5 489 Q 116.9 498.6 130.5 505 Q 141 510 155 511.5 L 0 512 L 0 0 Z " /><path fill="rgb(0,0,0)" stroke="rgb(0,0,0)" stroke-width="1" opacity="0" d="M 446 0 L 511.5 0 L 512 0.5 L 512 512 L 386.5 512 L 385 510.5 L 372.5 496 L 365 491.5 L 364 487.5 L 364 463.5 L 365 462.5 L 365 453.5 L 366 452.5 L 368 435.5 L 372 420.5 L 379 402.5 L 392 377.5 L 415 342.5 L 429 315.5 L 433 303.5 L 436 287.5 L 436 258.5 L 430 224.5 L 413 171.5 L 420.5 167 L 425.5 166 L 453.5 166 L 464.5 163 Q 474.7 157.7 481 148.5 L 486 138.5 L 478 123.5 L 466 80.5 Q 461.2 67.8 451.5 60 L 439.5 53 L 434 52 Q 430.2 44.2 432 29.5 L 435 20.5 L 446 0 Z " /><path fill="rgb(0,0,0)" stroke="rgb(0,0,0)" stroke-width="1" opacity="0" d="M 447.5 89 L 450.5 93 L 447.5 89 Z " /><path fill="rgb(0,0,0)" stroke="rgb(0,0,0)" stroke-width="1" opacity="0" d="M 439.5 95 L 440.5 97 L 439.5 95 Z " /><path fill="rgb(0,0,0)" stroke="rgb(0,0,0)" stroke-width="1" opacity="0" d="M 293.5 353 Q 313.4 369.6 324 395.5 L 330 419.5 L 330 441.5 L 326 458.5 L 320 470.5 L 311 483 Q 317.3 484.8 321 490.5 Q 327.6 498.8 328 512 L 313.5 512 Q 312.5 512 313 507.5 L 309 494.5 L 302.5 488 L 290 483.5 Q 307.3 468.8 317 446.5 L 321 431.5 L 321 410.5 L 314 386.5 L 305 369.5 L 293.5 353 Z " /><path fill="rgb(0,0,0)" stroke="rgb(0,0,0)" stroke-width="1" opacity="0.7803921568627451" d="M 444.5 0 Q 446.8 -0.8 446 1.5 L 444 2.5 L 444.5 0 Z " /><path fill="rgb(0,0,0)" stroke="rgb(0,0,0)" stroke-width="1" opacity="0.7803921568627451" d="M 383.5 26 L 382.5 28 L 383.5 26 Z " /><path fill="rgb(0,0,0)" stroke="rgb(0,0,0)" stroke-width="1" opacity="0.7803921568627451" d="M 376.5 30 L 375.5 32 L 376.5 30 Z " /><path fill="rgb(0,0,0)" stroke="rgb(0,0,0)" stroke-width="1" opacity="0.7803921568627451" d="M 373.5 32 L 372.5 34 L 373.5 32 Z " /><path fill="rgb(0,0,0)" stroke="rgb(0,0,0)" stroke-width="1" opacity="0.7803921568627451" d="M 431.5 32 L 432 42.5 L 431 42.5 L 431.5 32 Z " /><path fill="rgb(0,0,0)" stroke="rgb(0,0,0)" stroke-width="1" opacity="0.7803921568627451" d="M 366.5 37 L 365.5 39 L 366.5 37 Z " /><path fill="rgb(0,0,0)" stroke="rgb(0,0,0)" stroke-width="1" opacity="0.7803921568627451" d="M 362.5 40 L 360.5 43 L 362.5 40 Z " /><path fill="rgb(0,0,0)" stroke="rgb(0,0,0)" stroke-width="1" opacity="0.7803921568627451" d="M 349.5 53 L 347.5 56 L 349.5 53 Z " /><path fill="rgb(0,0,0)" stroke="rgb(0,0,0)" stroke-width="1" opacity="0.7803921568627451" d="M 346.5 57 L 345.5 59 L 346.5 57 Z " /><path fill="rgb(0,0,0)" stroke="rgb(0,0,0)" stroke-width="1" opacity="0.7803921568627451" d="M 451.5 60 L 457.5 67 L 451.5 60 Z " /><path fill="rgb(0,0,0)" stroke="rgb(0,0,0)" stroke-width="1" opacity="0.7803921568627451" d="M 342.5 63 L 341.5 65 L 342.5 63 Z " /><path fill="rgb(0,0,0)" stroke="rgb(0,0,0)" stroke-width="1" opacity="0.7803921568627451" d="M 459.5 69 L 460.5 71 L 459.5 69 Z " /><path fill="rgb(0,0,0)" stroke="rgb(0,0,0)" stroke-width="1" opacity="0.7803921568627451" d="M 98.5 81 L 105 81.5 L 98.5 82 L 98.5 81 Z " /><path fill="rgb(0,0,0)" stroke="rgb(0,0,0)" stroke-width="1" opacity="0.7803921568627451" d="M 87.5 82 L 91 82.5 L 87.5 83 L 87.5 82 Z " /><path fill="rgb(0,0,0)" stroke="rgb(0,0,0)" stroke-width="1" opacity="0.7803921568627451" d="M 112.5 82 L 116 82.5 L 112.5 83 L 112.5 82 Z " /><path fill="rgb(0,0,0)" stroke="rgb(0,0,0)" stroke-width="1" opacity="0.7803921568627451" d="M 119.5 83 L 122 83.5 L 119.5 84 L 119.5 83 Z " /><path fill="rgb(0,0,0)" stroke="rgb(0,0,0)" stroke-width="1" opacity="0.7803921568627451" d="M 434.5 85 L 435 87.5 L 434 87.5 L 434.5 85 Z " /><path fill="rgb(0,0,0)" stroke="rgb(0,0,0)" stroke-width="1" opacity="0.7803921568627451" d="M 438.5 86 L 441 86.5 L 438.5 87 L 438.5 86 Z " /><path fill="rgb(0,0,0)" stroke="rgb(0,0,0)" stroke-width="1" opacity="0.7803921568627451" d="M 448.5 89 L 450.5 92 L 448.5 89 Z " /><path fill="rgb(0,0,0)" stroke="rgb(0,0,0)" stroke-width="1" opacity="0.7803921568627451" d="M 437.5 93 L 438.5 95 L 437.5 93 Z " /><path fill="rgb(0,0,0)" stroke="rgb(0,0,0)" stroke-width="1" opacity="0.7803921568627451" d="M 54.5 94 L 53.5 96 L 54.5 94 Z " /><path fill="rgb(0,0,0)" stroke="rgb(0,0,0)" stroke-width="1" opacity="0.7803921568627451" d="M 152.5 95 L 153.5 97 L 152.5 95 Z " /><path fill="rgb(0,0,0)" stroke="rgb(0,0,0)" stroke-width="1" opacity="0.7803921568627451" d="M 51.5 96 L 50.5 98 L 51.5 96 Z " /><path fill="rgb(0,0,0)" stroke="rgb(0,0,0)" stroke-width="1" opacity="0.7803921568627451" d="M 155.5 97 L 156.5 99 L 155.5 97 Z " /><path fill="rgb(0,0,0)" stroke="rgb(0,0,0)" stroke-width="1" opacity="0.7803921568627451" d="M 48.5 98 L 47.5 100 L 48.5 98 Z " /><path fill="rgb(0,0,0)" stroke="rgb(0,0,0)" stroke-width="1" opacity="0.7803921568627451" d="M 158.5 99 L 159.5 101 L 158.5 99 Z " /><path fill="rgb(0,0,0)" stroke="rgb(0,0,0)" stroke-width="1" opacity="0.7803921568627451" d="M 446.5 99 L 454 99.5 L 446.5 100 L 446.5 99 Z " /><path fill="rgb(0,0,0)" stroke="rgb(0,0,0)" stroke-width="1" opacity="0.7803921568627451" d="M 44.5 101 L 43.5 103 L 44.5 101 Z " /><path fill="rgb(0,0,0)" stroke="rgb(0,0,0)" stroke-width="1" opacity="0.7803921568627451" d="M 161.5 101 L 163.5 104 L 161.5 101 Z " /><path fill="rgb(0,0,0)" stroke="rgb(0,0,0)" stroke-width="1" opacity="0.7803921568627451" d="M 39.5 105 L 34.5 111 L 39.5 105 Z " /><path fill="rgb(0,0,0)" stroke="rgb(0,0,0)" stroke-width="1" opacity="0.7803921568627451" d="M 166.5 105 L 177.5 117 L 166.5 105 Z " /><path fill="rgb(0,0,0)" stroke="rgb(0,0,0)" stroke-width="1" opacity="0.7803921568627451" d="M 32.5 113 L 31.5 115 L 32.5 113 Z " /><path fill="rgb(0,0,0)" stroke="rgb(0,0,0)" stroke-width="1" opacity="0.7803921568627451" d="M 179.5 119 L 181.5 122 L 179.5 119 Z " /><path fill="rgb(0,0,0)" stroke="rgb(0,0,0)" stroke-width="1" opacity="0.7803921568627451" d="M 96.5 122 L 101 122.5 L 96.5 123 L 96.5 122 Z " /><path fill="rgb(0,0,0)" stroke="rgb(0,0,0)" stroke-width="1" opacity="0.7803921568627451" d="M 88.5 123 L 91 123.5 L 88.5 124 L 88.5 123 Z " /><path fill="rgb(0,0,0)" stroke="rgb(0,0,0)" stroke-width="1" opacity="0.7803921568627451" d="M 106.5 123 L 109 123.5 L 106.5 124 L 106.5 123 Z " /><path fill="rgb(0,0,0)" stroke="rgb(0,0,0)" stroke-width="1" opacity="0.7803921568627451" d="M 182.5 123 L 183.5 125 L 182.5 123 Z " /><path fill="rgb(0,0,0)" stroke="rgb(0,0,0)" stroke-width="1" opacity="0.7803921568627451" d="M 83.5 124 L 86 124.5 L 83.5 125 L 83.5 124 Z " /><path fill="rgb(0,0,0)" stroke="rgb(0,0,0)" stroke-width="1" opacity="0.7803921568627451" d="M 26.5 127 L 27 130.5 L 26 130.5 L 26.5 127 Z " /><path fill="rgb(0,0,0)" stroke="rgb(0,0,0)" stroke-width="1" opacity="0.7803921568627451" d="M 186.5 129 L 187.5 131 L 186.5 129 Z " /><path fill="rgb(0,0,0)" stroke="rgb(0,0,0)" stroke-width="1" opacity="0.7803921568627451" d="M 130.5 132 L 131.5 134 L 130.5 132 Z " /><path fill="rgb(0,0,0)" stroke="rgb(0,0,0)" stroke-width="1" opacity="0.7803921568627451" d="M 64.5 133 L 62.5 136 L 64.5 133 Z " /><path fill="rgb(0,0,0)" stroke="rgb(0,0,0)" stroke-width="1" opacity="0.7803921568627451" d="M 133.5 134 L 144.5 146 L 133.5 134 Z " /><path fill="rgb(0,0,0)" stroke="rgb(0,0,0)" stroke-width="1" opacity="0.7803921568627451" d="M 60.5 136 L 59.5 138 L 60.5 136 Z " /><path fill="rgb(0,0,0)" stroke="rgb(0,0,0)" stroke-width="1" opacity="0.7803921568627451" d="M 484.5 137 L 485.5 139 L 484.5 137 Z " /><path fill="rgb(0,0,0)" stroke="rgb(0,0,0)" stroke-width="1" opacity="0.7803921568627451" d="M 29.5 138 L 31.5 141 L 29.5 138 Z " /><path fill="rgb(0,0,0)" stroke="rgb(0,0,0)" stroke-width="1" opacity="0.7803921568627451" d="M 57.5 138 L 56.5 140 L 57.5 138 Z " /><path fill="rgb(0,0,0)" stroke="rgb(0,0,0)" stroke-width="1" opacity="0.7803921568627451" d="M 37.5 143 L 40 143.5 L 37.5 144 L 37.5 143 Z " /><path fill="rgb(0,0,0)" stroke="rgb(0,0,0)" stroke-width="1" opacity="0.7803921568627451" d="M 44.5 143 L 47 143.5 L 44.5 144 L 44.5 143 Z " /><path fill="rgb(0,0,0)" stroke="rgb(0,0,0)" stroke-width="1" opacity="0.7803921568627451" d="M 482.5 145 L 481.5 147 L 482.5 145 Z " /><path fill="rgb(0,0,0)" stroke="rgb(0,0,0)" stroke-width="1" opacity="0.7803921568627451" d="M 145.5 147 L 146.5 149 L 145.5 147 Z " /><path fill="rgb(0,0,0)" stroke="rgb(0,0,0)" stroke-width="1" opacity="0.7803921568627451" d="M 480.5 148 L 478.5 151 L 480.5 148 Z " /><path fill="rgb(0,0,0)" stroke="rgb(0,0,0)" stroke-width="1" opacity="0.7803921568627451" d="M 147.5 150 L 148.5 152 L 147.5 150 Z " /><path fill="rgb(0,0,0)" stroke="rgb(0,0,0)" stroke-width="1" opacity="0.7803921568627451" d="M 308.5 155 L 307.5 157 L 308.5 155 Z " /><path fill="rgb(0,0,0)" stroke="rgb(0,0,0)" stroke-width="1" opacity="0.7803921568627451" d="M 471.5 157 L 469.5 160 L 471.5 157 Z " /><path fill="rgb(0,0,0)" stroke="rgb(0,0,0)" stroke-width="1" opacity="0.7803921568627451" d="M 198.5 160 L 199 162.5 L 198 162.5 L 198.5 160 Z " /><path fill="rgb(0,0,0)" stroke="rgb(0,0,0)" stroke-width="1" opacity="0.7803921568627451" d="M 304.5 162 L 303.5 164 L 304.5 162 Z " /><path fill="rgb(0,0,0)" stroke="rgb(0,0,0)" stroke-width="1" opacity="0.7803921568627451" d="M 429.5 165 L 443 165.5 L 429.5 166 L 429.5 165 Z " /><path fill="rgb(0,0,0)" stroke="rgb(0,0,0)" stroke-width="1" opacity="0.7803921568627451" d="M 449.5 165 L 454 165.5 L 449.5 166 L 449.5 165 Z " /><path fill="rgb(0,0,0)" stroke="rgb(0,0,0)" stroke-width="1" opacity="0.7803921568627451" d="M 422.5 166 L 425 166.5 L 422.5 167 L 422.5 166 Z " /><path fill="rgb(0,0,0)" stroke="rgb(0,0,0)" stroke-width="1" opacity="0.7803921568627451" d="M 199.5 168 L 200 180.5 L 199 180.5 L 199.5 168 Z " /><path fill="rgb(0,0,0)" stroke="rgb(0,0,0)" stroke-width="1" opacity="0.7803921568627451" d="M 156.5 170 L 157 172.5 L 156 172.5 L 156.5 170 Z " /><path fill="rgb(0,0,0)" stroke="rgb(0,0,0)" stroke-width="1" opacity="0.7803921568627451" d="M 413.5 170 L 413 171.5 L 412.5 173 L 412 171.5 L 413.5 170 Z " /><path fill="rgb(0,0,0)" stroke="rgb(0,0,0)" stroke-width="1" opacity="0.7803921568627451" d="M 298.5 171 L 297.5 173 L 298.5 171 Z " /><path fill="rgb(0,0,0)" stroke="rgb(0,0,0)" stroke-width="1" opacity="0.7803921568627451" d="M 296.5 174 L 295.5 176 L 296.5 174 Z " /><path fill="rgb(0,0,0)" stroke="rgb(0,0,0)" stroke-width="1" opacity="0.7803921568627451" d="M 294.5 177 L 292.5 180 L 294.5 177 Z " /><path fill="rgb(0,0,0)" stroke="rgb(0,0,0)" stroke-width="1" opacity="0.7803921568627451" d="M 157.5 179 L 158 184.5 L 157 184.5 L 157.5 179 Z " /><path fill="rgb(0,0,0)" stroke="rgb(0,0,0)" stroke-width="1" opacity="0.7803921568627451" d="M 291.5 181 L 290.5 183 L 291.5 181 Z " /><path fill="rgb(0,0,0)" stroke="rgb(0,0,0)" stroke-width="1" opacity="0.7803921568627451" d="M 288.5 185 L 286.5 188 L 288.5 185 Z " /><path fill="rgb(0,0,0)" stroke="rgb(0,0,0)" stroke-width="1" opacity="0.7803921568627451" d="M 198.5 186 L 199 188.5 L 198 188.5 L 198.5 186 Z " /><path fill="rgb(0,0,0)" stroke="rgb(0,0,0)" stroke-width="1" opacity="0.7803921568627451" d="M 284.5 190 L 281.5 194 L 284.5 190 Z " /><path fill="rgb(0,0,0)" stroke="rgb(0,0,0)" stroke-width="1" opacity="0.7803921568627451" d="M 156.5 191 L 157 193.5 L 156 193.5 L 156.5 191 Z " /><path fill="rgb(0,0,0)" stroke="rgb(0,0,0)" stroke-width="1" opacity="0.7803921568627451" d="M 155.5 196 L 156 198.5 L 155 198.5 L 155.5 196 Z " /><path fill="rgb(0,0,0)" stroke="rgb(0,0,0)" stroke-width="1" opacity="0.7803921568627451" d="M 277.5 198 L 272.5 204 L 277.5 198 Z " /><path fill="rgb(0,0,0)" stroke="rgb(0,0,0)" stroke-width="1" opacity="0.7803921568627451" d="M 264.5 212 L 250.5 227 L 264.5 212 Z " /><path fill="rgb(0,0,0)" stroke="rgb(0,0,0)" stroke-width="1" opacity="0.7803921568627451" d="M 429.5 224 L 430 226.5 L 429 226.5 L 429.5 224 Z " /><path fill="rgb(0,0,0)" stroke="rgb(0,0,0)" stroke-width="1" opacity="0.7803921568627451" d="M 245.5 230 L 240.5 236 L 245.5 230 Z " /><path fill="rgb(0,0,0)" stroke="rgb(0,0,0)" stroke-width="1" opacity="0.7803921568627451" d="M 236.5 238 L 233.5 242 L 236.5 238 Z " /><path fill="rgb(0,0,0)" stroke="rgb(0,0,0)" stroke-width="1" opacity="0.7803921568627451" d="M 432.5 238 L 433 240.5 L 432 240.5 L 432.5 238 Z " /><path fill="rgb(0,0,0)" stroke="rgb(0,0,0)" stroke-width="1" opacity="0.7803921568627451" d="M 433.5 243 L 434 245.5 L 433 245.5 L 433.5 243 Z " /><path fill="rgb(0,0,0)" stroke="rgb(0,0,0)" stroke-width="1" opacity="0.7803921568627451" d="M 176.5 244 L 175.5 246 L 176.5 244 Z " /><path fill="rgb(0,0,0)" stroke="rgb(0,0,0)" stroke-width="1" opacity="0.7803921568627451" d="M 229.5 244 L 227.5 247 L 229.5 244 Z " /><path fill="rgb(0,0,0)" stroke="rgb(0,0,0)" stroke-width="1" opacity="0.7803921568627451" d="M 224.5 248 L 222.5 251 L 224.5 248 Z " /><path fill="rgb(0,0,0)" stroke="rgb(0,0,0)" stroke-width="1" opacity="0.7803921568627451" d="M 173.5 249 L 172.5 251 L 173.5 249 Z " /><path fill="rgb(0,0,0)" stroke="rgb(0,0,0)" stroke-width="1" opacity="0.7803921568627451" d="M 434.5 250 L 435 252.5 L 434 252.5 L 434.5 250 Z " /><path fill="rgb(0,0,0)" stroke="rgb(0,0,0)" stroke-width="1" opacity="0.7803921568627451" d="M 219.5 252 L 217.5 255 L 219.5 252 Z " /><path fill="rgb(0,0,0)" stroke="rgb(0,0,0)" stroke-width="1" opacity="0.7803921568627451" d="M 170.5 254 L 169.5 256 L 170.5 254 Z " /><path fill="rgb(0,0,0)" stroke="rgb(0,0,0)" stroke-width="1" opacity="0.7803921568627451" d="M 130.5 255 L 129.5 257 L 130.5 255 Z " /><path fill="rgb(0,0,0)" stroke="rgb(0,0,0)" stroke-width="1" opacity="0.7803921568627451" d="M 214.5 256 L 212.5 259 L 214.5 256 Z " /><path fill="rgb(0,0,0)" stroke="rgb(0,0,0)" stroke-width="1" opacity="0.7803921568627451" d="M 435.5 258 L 436 262.5 L 435 262.5 L 435.5 258 Z " /><path fill="rgb(0,0,0)" stroke="rgb(0,0,0)" stroke-width="1" opacity="0.7803921568627451" d="M 210.5 259 L 209.5 261 L 210.5 259 Z " /><path fill="rgb(0,0,0)" stroke="rgb(0,0,0)" stroke-width="1" opacity="0.7803921568627451" d="M 127.5 260 L 126.5 262 L 127.5 260 Z " /><path fill="rgb(0,0,0)" stroke="rgb(0,0,0)" stroke-width="1" opacity="0.7803921568627451" d="M 165.5 262 L 164.5 264 L 165.5 262 Z " /><path fill="rgb(0,0,0)" stroke="rgb(0,0,0)" stroke-width="1" opacity="0.7803921568627451" d="M 206.5 262 L 205.5 264 L 206.5 262 Z " /><path fill="rgb(0,0,0)" stroke="rgb(0,0,0)" stroke-width="1" opacity="0.7803921568627451" d="M 124.5 265 L 123.5 267 L 124.5 265 Z " /><path fill="rgb(0,0,0)" stroke="rgb(0,0,0)" stroke-width="1" opacity="0.7803921568627451" d="M 163.5 265 L 162.5 267 L 163.5 265 Z " /><path fill="rgb(0,0,0)" stroke="rgb(0,0,0)" stroke-width="1" opacity="0.7803921568627451" d="M 202.5 265 L 201.5 267 L 202.5 265 Z " /><path fill="rgb(0,0,0)" stroke="rgb(0,0,0)" stroke-width="1" opacity="0.7803921568627451" d="M 161.5 268 L 160.5 270 L 161.5 268 Z " /><path fill="rgb(0,0,0)" stroke="rgb(0,0,0)" stroke-width="1" opacity="0.7803921568627451" d="M 198.5 268 L 197.5 270 L 198.5 268 Z " /><path fill="rgb(0,0,0)" stroke="rgb(0,0,0)" stroke-width="1" opacity="0.7803921568627451" d="M 159.5 271 L 158.5 273 L 159.5 271 Z " /><path fill="rgb(0,0,0)" stroke="rgb(0,0,0)" stroke-width="1" opacity="0.7803921568627451" d="M 194.5 271 L 192.5 274 L 194.5 271 Z " /><path fill="rgb(0,0,0)" stroke="rgb(0,0,0)" stroke-width="1" opacity="0.7803921568627451" d="M 119.5 273 L 118.5 275 L 119.5 273 Z " /><path fill="rgb(0,0,0)" stroke="rgb(0,0,0)" stroke-width="1" opacity="0.7803921568627451" d="M 157.5 274 L 156.5 276 L 157.5 274 Z " /><path fill="rgb(0,0,0)" stroke="rgb(0,0,0)" stroke-width="1" opacity="0.7803921568627451" d="M 189.5 275 L 188.5 277 L 189.5 275 Z " /><path fill="rgb(0,0,0)" stroke="rgb(0,0,0)" stroke-width="1" opacity="0.7803921568627451" d="M 117.5 276 L 116.5 278 L 117.5 276 Z " /><path fill="rgb(0,0,0)" stroke="rgb(0,0,0)" stroke-width="1" opacity="0.7803921568627451" d="M 155.5 277 L 154.5 279 L 155.5 277 Z " /><path fill="rgb(0,0,0)" stroke="rgb(0,0,0)" stroke-width="1" opacity="0.7803921568627451" d="M 185.5 278 L 181.5 283 L 185.5 278 Z " /><path fill="rgb(0,0,0)" stroke="rgb(0,0,0)" stroke-width="1" opacity="0.7803921568627451" d="M 153.5 280 L 152.5 282 L 153.5 280 Z " /><path fill="rgb(0,0,0)" stroke="rgb(0,0,0)" stroke-width="1" opacity="0.7803921568627451" d="M 435.5 282 L 436 287.5 L 435 287.5 L 435.5 282 Z " /><path fill="rgb(0,0,0)" stroke="rgb(0,0,0)" stroke-width="1" opacity="0.7803921568627451" d="M 151.5 283 L 150.5 285 L 151.5 283 Z " /><path fill="rgb(0,0,0)" stroke="rgb(0,0,0)" stroke-width="1" opacity="0.7803921568627451" d="M 112.5 284 L 111.5 286 L 112.5 284 Z " /><path fill="rgb(0,0,0)" stroke="rgb(0,0,0)" stroke-width="1" opacity="0.7803921568627451" d="M 149.5 286 L 148.5 288 L 149.5 286 Z " /><path fill="rgb(0,0,0)" stroke="rgb(0,0,0)" stroke-width="1" opacity="0.7803921568627451" d="M 110.5 287 L 109.5 289 L 110.5 287 Z " /><path fill="rgb(0,0,0)" stroke="rgb(0,0,0)" stroke-width="1" opacity="0.7803921568627451" d="M 147.5 289 L 146.5 291 L 147.5 289 Z " /><path fill="rgb(0,0,0)" stroke="rgb(0,0,0)" stroke-width="1" opacity="0.7803921568627451" d="M 145.5 292 L 144.5 294 L 145.5 292 Z " /><path fill="rgb(0,0,0)" stroke="rgb(0,0,0)" stroke-width="1" opacity="0.7803921568627451" d="M 434.5 292 L 435 294.5 L 434 294.5 L 434.5 292 Z " /><path fill="rgb(0,0,0)" stroke="rgb(0,0,0)" stroke-width="1" opacity="0.7803921568627451" d="M 106.5 293 L 105.5 295 L 106.5 293 Z " /><path fill="rgb(0,0,0)" stroke="rgb(0,0,0)" stroke-width="1" opacity="0.7803921568627451" d="M 143.5 295 L 142.5 297 L 143.5 295 Z " /><path fill="rgb(0,0,0)" stroke="rgb(0,0,0)" stroke-width="1" opacity="0.7803921568627451" d="M 168.5 295 L 164.5 300 L 168.5 295 Z " /><path fill="rgb(0,0,0)" stroke="rgb(0,0,0)" stroke-width="1" opacity="0.7803921568627451" d="M 104.5 296 L 103.5 298 L 104.5 296 Z " /><path fill="rgb(0,0,0)" stroke="rgb(0,0,0)" stroke-width="1" opacity="0.7803921568627451" d="M 141.5 298 L 140.5 300 L 141.5 298 Z " /><path fill="rgb(0,0,0)" stroke="rgb(0,0,0)" stroke-width="1" opacity="0.7803921568627451" d="M 139.5 301 L 138.5 303 L 139.5 301 Z " /><path fill="rgb(0,0,0)" stroke="rgb(0,0,0)" stroke-width="1" opacity="0.7803921568627451" d="M 162.5 302 L 161.5 304 L 162.5 302 Z " /><path fill="rgb(0,0,0)" stroke="rgb(0,0,0)" stroke-width="1" opacity="0.7803921568627451" d="M 137.5 304 L 136.5 306 L 137.5 304 Z " /><path fill="rgb(0,0,0)" stroke="rgb(0,0,0)" stroke-width="1" opacity="0.7803921568627451" d="M 159.5 306 L 158.5 308 L 159.5 306 Z " /><path fill="rgb(0,0,0)" stroke="rgb(0,0,0)" stroke-width="1" opacity="0.7803921568627451" d="M 97.5 307 L 96.5 309 L 97.5 307 Z " /><path fill="rgb(0,0,0)" stroke="rgb(0,0,0)" stroke-width="1" opacity="0.7803921568627451" d="M 157.5 309 L 156.5 311 L 157.5 309 Z " /><path fill="rgb(0,0,0)" stroke="rgb(0,0,0)" stroke-width="1" opacity="0.7803921568627451" d="M 95.5 310 L 94.5 312 L 95.5 310 Z " /><path fill="rgb(0,0,0)" stroke="rgb(0,0,0)" stroke-width="1" opacity="0.7803921568627451" d="M 132.5 312 L 131.5 314 L 132.5 312 Z " /><path fill="rgb(0,0,0)" stroke="rgb(0,0,0)" stroke-width="1" opacity="0.7803921568627451" d="M 92.5 315 L 91.5 317 L 92.5 315 Z " /><path fill="rgb(0,0,0)" stroke="rgb(0,0,0)" stroke-width="1" opacity="0.7803921568627451" d="M 130.5 315 L 129.5 317 L 130.5 315 Z " /><path fill="rgb(0,0,0)" stroke="rgb(0,0,0)" stroke-width="1" opacity="0.7803921568627451" d="M 90.5 318 L 89.5 320 L 90.5 318 Z " /><path fill="rgb(0,0,0)" stroke="rgb(0,0,0)" stroke-width="1" opacity="0.7803921568627451" d="M 127.5 320 L 126.5 322 L 127.5 320 Z " /><path fill="rgb(0,0,0)" stroke="rgb(0,0,0)" stroke-width="1" opacity="0.7803921568627451" d="M 87.5 323 L 86.5 325 L 87.5 323 Z " /><path fill="rgb(0,0,0)" stroke="rgb(0,0,0)" stroke-width="1" opacity="0.7803921568627451" d="M 84.5 328 L 83.5 330 L 84.5 328 Z " /><path fill="rgb(0,0,0)" stroke="rgb(0,0,0)" stroke-width="1" opacity="0.7803921568627451" d="M 80.5 335 L 79.5 337 L 80.5 335 Z " /><path fill="rgb(0,0,0)" stroke="rgb(0,0,0)" stroke-width="1" opacity="0.7803921568627451" d="M 414.5 342 L 413.5 344 L 414.5 342 Z " /><path fill="rgb(0,0,0)" stroke="rgb(0,0,0)" stroke-width="1" opacity="0.7803921568627451" d="M 291.5 351 L 292.5 353 L 291.5 351 Z " /><path fill="rgb(0,0,0)" stroke="rgb(0,0,0)" stroke-width="1" opacity="0.7803921568627451" d="M 294.5 353 L 303.5 363 L 295.5 355 Q 294.3 357.3 293 354.5 L 294.5 353 Z " /><path fill="rgb(0,0,0)" stroke="rgb(0,0,0)" stroke-width="1" opacity="0.7803921568627451" d="M 407.5 353 L 406.5 355 L 407.5 353 Z " /><path fill="rgb(0,0,0)" stroke="rgb(0,0,0)" stroke-width="1" opacity="0.7803921568627451" d="M 138.5 358 L 139 361.5 L 138 361.5 L 138.5 358 Z " /><path fill="rgb(0,0,0)" stroke="rgb(0,0,0)" stroke-width="1" opacity="0.7803921568627451" d="M 296.5 358 L 297.5 360 L 296.5 358 Z " /><path fill="rgb(0,0,0)" stroke="rgb(0,0,0)" stroke-width="1" opacity="0.7803921568627451" d="M 400.5 364 L 399.5 366 L 400.5 364 Z " /><path fill="rgb(0,0,0)" stroke="rgb(0,0,0)" stroke-width="1" opacity="0.7803921568627451" d="M 301.5 365 L 302.5 367 L 301.5 365 Z " /><path fill="rgb(0,0,0)" stroke="rgb(0,0,0)" stroke-width="1" opacity="0.7803921568627451" d="M 137.5 366 L 138 371.5 L 137 371.5 L 137.5 366 Z " /><path fill="rgb(0,0,0)" stroke="rgb(0,0,0)" stroke-width="1" opacity="0.7803921568627451" d="M 306.5 366 L 308.5 369 L 306.5 366 Z " /><path fill="rgb(0,0,0)" stroke="rgb(0,0,0)" stroke-width="1" opacity="0.7803921568627451" d="M 398.5 367 L 397.5 369 L 398.5 367 Z " /><path fill="rgb(0,0,0)" stroke="rgb(0,0,0)" stroke-width="1" opacity="0.7803921568627451" d="M 303.5 368 L 304.5 370 L 303.5 368 Z " /><path fill="rgb(0,0,0)" stroke="rgb(0,0,0)" stroke-width="1" opacity="0.7803921568627451" d="M 310.5 371 L 311.5 373 L 310.5 371 Z " /><path fill="rgb(0,0,0)" stroke="rgb(0,0,0)" stroke-width="1" opacity="0.7803921568627451" d="M 395.5 372 L 394.5 374 L 395.5 372 Z " /><path fill="rgb(0,0,0)" stroke="rgb(0,0,0)" stroke-width="1" opacity="0.7803921568627451" d="M 306.5 373 L 307.5 375 L 306.5 373 Z " /><path fill="rgb(0,0,0)" stroke="rgb(0,0,0)" stroke-width="1" opacity="0.7803921568627451" d="M 65.5 374 L 66 376.5 L 65 376.5 L 65.5 374 Z " /><path fill="rgb(0,0,0)" stroke="rgb(0,0,0)" stroke-width="1" opacity="0.7803921568627451" d="M 312.5 374 L 313.5 376 L 312.5 374 Z " /><path fill="rgb(0,0,0)" stroke="rgb(0,0,0)" stroke-width="1" opacity="0.7803921568627451" d="M 104.5 377 L 105 380.5 L 104 380.5 L 104.5 377 Z " /><path fill="rgb(0,0,0)" stroke="rgb(0,0,0)" stroke-width="1" opacity="0.7803921568627451" d="M 314.5 377 L 315.5 379 L 314.5 377 Z " /><path fill="rgb(0,0,0)" stroke="rgb(0,0,0)" stroke-width="1" opacity="0.7803921568627451" d="M 64.5 382 L 65 399.5 L 64 399.5 L 64.5 382 Z " /><path fill="rgb(0,0,0)" stroke="rgb(0,0,0)" stroke-width="1" opacity="0.7803921568627451" d="M 319.5 386 L 320.5 388 L 319.5 386 Z " /><path fill="rgb(0,0,0)" stroke="rgb(0,0,0)" stroke-width="1" opacity="0.7803921568627451" d="M 104.5 394 L 105 398.5 L 104 398.5 L 104.5 394 Z " /><path fill="rgb(0,0,0)" stroke="rgb(0,0,0)" stroke-width="1" opacity="0.7803921568627451" d="M 65.5 405 L 66 408.5 L 65 408.5 L 65.5 405 Z " /><path fill="rgb(0,0,0)" stroke="rgb(0,0,0)" stroke-width="1" opacity="0.7803921568627451" d="M 137.5 407 L 138 416.5 L 137 416.5 L 137.5 407 Z " /><path fill="rgb(0,0,0)" stroke="rgb(0,0,0)" stroke-width="1" opacity="0.7803921568627451" d="M 320.5 410 L 321 414.5 L 320 414.5 L 320.5 410 Z " /><path fill="rgb(0,0,0)" stroke="rgb(0,0,0)" stroke-width="1" opacity="0.7803921568627451" d="M 66.5 412 L 67 414.5 L 66 414.5 L 66.5 412 Z " /><path fill="rgb(0,0,0)" stroke="rgb(0,0,0)" stroke-width="1" opacity="0.7803921568627451" d="M 329.5 415 L 330 418.5 L 329 418.5 L 329.5 415 Z " /><path fill="rgb(0,0,0)" stroke="rgb(0,0,0)" stroke-width="1" opacity="0.7803921568627451" d="M 330.5 423 L 331 438.5 L 330 438.5 L 330.5 423 Z " /><path fill="rgb(0,0,0)" stroke="rgb(0,0,0)" stroke-width="1" opacity="0.7803921568627451" d="M 138.5 426 L 139 434.5 L 138 434.5 L 138.5 426 Z " /><path fill="rgb(0,0,0)" stroke="rgb(0,0,0)" stroke-width="1" opacity="0.7803921568627451" d="M 320.5 428 L 321 431.5 L 320 431.5 L 320.5 428 Z " /><path fill="rgb(0,0,0)" stroke="rgb(0,0,0)" stroke-width="1" opacity="0.7803921568627451" d="M 116.5 429 L 117.5 431 L 116.5 429 Z " /><path fill="rgb(0,0,0)" stroke="rgb(0,0,0)" stroke-width="1" opacity="0.7803921568627451" d="M 119.5 433 L 120.5 435 L 119.5 433 Z " /><path fill="rgb(0,0,0)" stroke="rgb(0,0,0)" stroke-width="1" opacity="0.7803921568627451" d="M 122.5 437 L 125.5 441 L 122.5 437 Z " /><path fill="rgb(0,0,0)" stroke="rgb(0,0,0)" stroke-width="1" opacity="0.7803921568627451" d="M 367.5 437 L 368 439.5 L 367 439.5 L 367.5 437 Z " /><path fill="rgb(0,0,0)" stroke="rgb(0,0,0)" stroke-width="1" opacity="0.7803921568627451" d="M 329.5 442 L 330 445.5 L 329 445.5 L 329.5 442 Z " /><path fill="rgb(0,0,0)" stroke="rgb(0,0,0)" stroke-width="1" opacity="0.7803921568627451" d="M 366.5 443 L 367 445.5 L 366 445.5 L 366.5 443 Z " /><path fill="rgb(0,0,0)" stroke="rgb(0,0,0)" stroke-width="1" opacity="0.7803921568627451" d="M 130.5 446 L 134.5 451 L 130.5 446 Z " /><path fill="rgb(0,0,0)" stroke="rgb(0,0,0)" stroke-width="1" opacity="0.7803921568627451" d="M 139.5 446 L 140 454 L 137 452.5 L 139 452.5 L 139.5 446 Z " /><path fill="rgb(0,0,0)" stroke="rgb(0,0,0)" stroke-width="1" opacity="0.7803921568627451" d="M 365.5 449 L 366 452.5 L 365 452.5 L 365.5 449 Z " /><path fill="rgb(0,0,0)" stroke="rgb(0,0,0)" stroke-width="1" opacity="0.7803921568627451" d="M 364.5 457 L 365 462.5 L 364 462.5 L 364.5 457 Z " /><path fill="rgb(0,0,0)" stroke="rgb(0,0,0)" stroke-width="1" opacity="0.7803921568627451" d="M 310.5 458 L 309.5 460 L 310.5 458 Z " /><path fill="rgb(0,0,0)" stroke="rgb(0,0,0)" stroke-width="1" opacity="0.7803921568627451" d="M 84.5 461 L 85.5 463 L 84.5 461 Z " /><path fill="rgb(0,0,0)" stroke="rgb(0,0,0)" stroke-width="1" opacity="0.7803921568627451" d="M 308.5 461 L 307.5 463 L 308.5 461 Z " /><path fill="rgb(0,0,0)" stroke="rgb(0,0,0)" stroke-width="1" opacity="0.7803921568627451" d="M 306.5 464 L 305.5 466 L 306.5 464 Z " /><path fill="rgb(0,0,0)" stroke="rgb(0,0,0)" stroke-width="1" opacity="0.7803921568627451" d="M 88.5 467 L 89.5 469 L 88.5 467 Z " /><path fill="rgb(0,0,0)" stroke="rgb(0,0,0)" stroke-width="1" opacity="0.7803921568627451" d="M 304.5 467 L 302.5 470 L 304.5 467 Z " /><path fill="rgb(0,0,0)" stroke="rgb(0,0,0)" stroke-width="1" opacity="0.7803921568627451" d="M 90.5 470 L 91.5 472 L 90.5 470 Z " /><path fill="rgb(0,0,0)" stroke="rgb(0,0,0)" stroke-width="1" opacity="0.7803921568627451" d="M 319.5 471 L 318.5 473 L 319.5 471 Z " /><path fill="rgb(0,0,0)" stroke="rgb(0,0,0)" stroke-width="1" opacity="0.7803921568627451" d="M 299.5 473 L 290.5 484 L 292 484.5 L 290.5 485 L 289 483.5 L 299.5 473 Z " /><path fill="rgb(0,0,0)" stroke="rgb(0,0,0)" stroke-width="1" opacity="0.7803921568627451" d="M 93.5 474 L 95.5 477 L 93.5 474 Z " /><path fill="rgb(0,0,0)" stroke="rgb(0,0,0)" stroke-width="1" opacity="0.7803921568627451" d="M 313.5 479 L 312 481.5 L 311.5 483 L 311 481.5 L 313.5 479 Z " /><path fill="rgb(0,0,0)" stroke="rgb(0,0,0)" stroke-width="1" opacity="0.7803921568627451" d="M 98.5 480 L 106.5 489 L 98.5 480 Z " /><path fill="rgb(0,0,0)" stroke="rgb(0,0,0)" stroke-width="1" opacity="0.7803921568627451" d="M 313.5 483 L 314.5 485 L 313.5 483 Z " /><path fill="rgb(0,0,0)" stroke="rgb(0,0,0)" stroke-width="1" opacity="0.7803921568627451" d="M 302.5 488 L 303.5 490 L 302.5 488 Z " /><path fill="rgb(0,0,0)" stroke="rgb(0,0,0)" stroke-width="1" opacity="0.7803921568627451" d="M 364.5 488 L 366 492.5 L 364 491.5 L 364.5 488 Z " /><path fill="rgb(0,0,0)" stroke="rgb(0,0,0)" stroke-width="1" opacity="0.7803921568627451" d="M 110.5 491 L 112.5 494 L 110.5 491 Z " /><path fill="rgb(0,0,0)" stroke="rgb(0,0,0)" stroke-width="1" opacity="0.7803921568627451" d="M 321.5 491 L 322.5 493 L 321.5 491 Z " /><path fill="rgb(0,0,0)" stroke="rgb(0,0,0)" stroke-width="1" opacity="0.7803921568627451" d="M 115.5 495 L 116.5 497 L 115.5 495 Z " /><path fill="rgb(0,0,0)" stroke="rgb(0,0,0)" stroke-width="1" opacity="0.7803921568627451" d="M 372.5 496 L 374.5 499 L 372.5 496 Z " /><path fill="rgb(0,0,0)" stroke="rgb(0,0,0)" stroke-width="1" opacity="0.7803921568627451" d="M 118.5 497 L 119.5 499 L 118.5 497 Z " /><path fill="rgb(0,0,0)" stroke="rgb(0,0,0)" stroke-width="1" opacity="0.7803921568627451" d="M 123.5 500 L 124.5 502 L 123.5 500 Z " /><path fill="rgb(0,0,0)" stroke="rgb(0,0,0)" stroke-width="1" opacity="0.7803921568627451" d="M 377.5 501 L 381.5 506 L 377.5 501 Z " /><path fill="rgb(0,0,0)" stroke="rgb(0,0,0)" stroke-width="1" opacity="0.7803921568627451" d="M 312.5 507 L 313 511.5 L 312 511.5 L 312.5 507 Z " /><path fill="rgb(0,0,0)" stroke="rgb(0,0,0)" stroke-width="1" opacity="0.7803921568627451" d="M 383.5 508 L 384.5 510 L 383.5 508 Z " /><path fill="rgb(0,0,0)" stroke="rgb(0,0,0)" stroke-width="1" opacity="0.7803921568627451" d="M 328.5 509 L 329 511.5 L 328 511.5 L 328.5 509 Z " /><path fill="rgb(0,0,0)" stroke="rgb(0,0,0)" stroke-width="1" opacity="0.7803921568627451" d="M 149.5 510 L 152 510.5 L 149.5 511 L 149.5 510 Z " /><path fill="rgb(0,0,0)" stroke="rgb(0,0,0)" stroke-width="1" opacity="0.7803921568627451" d="M 155.5 511 L 162 511.5 L 155.5 512 L 155.5 511 Z " /><path fill="rgb(0,0,0)" stroke="rgb(0,0,0)" stroke-width="1" opacity="1" d="M 443.5 1 L 445 1.5 L 433 24.5 L 431 32.5 L 431 42.5 L 433 50.5 L 435.5 53 Q 451.4 56.6 459 68.5 L 466 81.5 L 479 127.5 L 486 139.5 Q 480.8 149.8 472.5 157 L 465.5 162 L 456.5 165 L 443.5 166 L 442.5 165 L 429.5 165 L 419.5 167 L 412 171.5 Q 424.3 201.2 432 235.5 L 432 240.5 L 435 253.5 L 435 262.5 L 436 263.5 L 436 281.5 L 435 282.5 L 434 297.5 L 428 316.5 L 418 336.5 L 387 385.5 L 374 413.5 L 369 429.5 L 365 449.5 Q 366.8 455.7 364 457.5 L 364 491.5 L 377 500.5 L 386 511.5 L 329 512 Q 328 500.8 323 492.5 L 313.5 483 Q 311.3 483.8 312 481.5 Q 323 470.5 328 453.5 L 331 438.5 L 331 423.5 L 328 406.5 L 321 387.5 Q 310.7 367.3 294.5 353 Q 292.3 352.3 293 354.5 Q 306.8 369.7 315 390.5 L 320 407.5 L 321 427.5 L 319 438.5 L 311 457.5 Q 302.2 472.7 289 483.5 L 301.5 488 L 308 493.5 Q 313.3 500.1 312 512 L 162.5 512 L 161.5 511 L 152.5 511 L 142.5 509 L 125.5 502 Q 108.3 492.3 96 477.5 Q 78.9 457.1 70 428.5 L 65 404.5 L 65 377.5 L 71 354.5 L 79 337.5 L 125 265.5 L 148 222.5 L 156 198.5 L 158 179.5 L 157 178.5 L 156 166.5 L 149 151.5 L 133.5 134 L 116.5 125 L 96.5 122 L 77.5 126 L 53.5 141 L 40.5 144 L 33.5 142 L 29 137.5 Q 25.5 133.5 27 124.5 Q 31.7 110.7 42.5 103 Q 56.7 91.2 76.5 85 L 91.5 82 L 111.5 82 L 127.5 85 L 151.5 95 Q 167.6 104.4 179 118.5 Q 189.9 131.6 196 149.5 L 199 163.5 L 199 185.5 L 192 212.5 L 182 234.5 L 168 258.5 L 129 316.5 L 113 346.5 L 105 371.5 Q 106.3 376.2 104 377.5 L 104 398.5 Q 107.4 416.6 116 429.5 L 134.5 451 L 140 454 L 140 446.5 L 139 445.5 L 139 426.5 L 138 425.5 L 138 407.5 L 137 406.5 L 137 372.5 L 138 371.5 L 138 362.5 L 142 342.5 L 150 321.5 Q 162.1 299.1 180.5 283 L 233.5 242 L 265 212.5 Q 290.6 187.6 309 155.5 L 320 131.5 L 326 113.5 L 333 84.5 L 338 71.5 Q 345.9 54.4 359.5 43 L 384.5 26 Q 411.7 11.2 443.5 1 Z M 435 85 L 434 88 L 435 88 L 435 85 Z M 437 86 L 437 87 L 441 87 L 437 86 Z M 448 89 L 451 93 L 451 92 L 448 89 Z M 454 97 L 453 99 L 446 100 L 454 100 L 454 97 Z M 444 98 L 444 99 L 446 99 L 444 98 Z " /></svg>